<svg id="Layer_1" data-name="Layer 1" xmlns="http://www.w3.org/2000/svg" xmlns:xlink="http://www.w3.org/1999/xlink" viewBox="0 0 2125.9843 1275.5906"><defs><style>.cls-1,.cls-3,.cls-4{fill-rule:evenodd;}.cls-1{fill:url(#linear-gradient);}.cls-2,.cls-4{fill:#fff;}.cls-3{fill:url(#linear-gradient-2);}</style><linearGradient id="linear-gradient" x1="1621.6627" y1="248.503" x2="1621.6627" y2="984.7706" gradientUnits="userSpaceOnUse"><stop offset="0" stop-color="#fec053"/><stop offset="0.3273" stop-color="#ee2740"/><stop offset="0.6485" stop-color="#ac3d96"/><stop offset="1" stop-color="#5755a5"/></linearGradient><linearGradient id="linear-gradient-2" x1="566.3193" y1="285.8735" x2="566.3193" y2="951.4109" gradientUnits="userSpaceOnUse"><stop offset="0" stop-color="#526ab2"/><stop offset="1" stop-color="#3e52a0"/></linearGradient></defs><title>dm</title><path class="cls-1" d="M1405.75,235.48h431.8217c93.1991,0,169.6982,76.4939,169.6982,169.6949V836.6078c0,93.5792-76.4991,170.0821-169.6982,170.0821H1405.75c-93.1957,0-169.6949-76.5029-169.6949-170.0821V405.1752c0-93.201,76.4992-169.6949,169.6949-169.6949Z"/><path class="cls-2" d="M1734.7274,883.5618H1508.5981c-82.3813,0-149.4072-67.0225-149.4072-149.4075V508.0175c0-82.3795,67.0259-149.4035,149.4072-149.4035h226.1293c82.3813,0,149.4109,67.024,149.4109,149.4035V734.1543C1884.1383,816.5393,1817.1087,883.5618,1734.7274,883.5618ZM1508.5981,403.61a104.53,104.53,0,0,0-104.4154,104.4079V734.1543A104.5338,104.5338,0,0,0,1508.5981,838.57h226.1293a104.5338,104.5338,0,0,0,104.4154-104.4153V508.0175A104.53,104.53,0,0,0,1734.7274,403.61Z"/><path class="cls-2" d="M1621.6644,755.4977c-74.1172,0-134.4135-60.2926-134.4135-134.41,0-74.1138,60.2963-134.4135,134.4135-134.4135,74.11,0,134.41,60.3,134.41,134.4135C1756.0746,695.2051,1695.7745,755.4977,1621.6644,755.4977Zm0-223.8259a89.4152,89.4152,0,1,0,89.4143,89.4161A89.5168,89.5168,0,0,0,1621.6644,531.6718Z"/><path class="cls-2" d="M1794.1435,478.9875a32.3057,32.3057,0,1,1-32.3038-32.3109A32.3015,32.3015,0,0,1,1794.1435,478.9875Z"/><path class="cls-3" d="M346.6689,235.48H785.977c94.8979,0,172.7987,77.9042,172.7987,172.804V847.5905c0,95.2963-77.9008,173.1967-172.7987,173.1967H346.6689c-95.2959,0-172.8059-77.9-172.8059-173.1967V408.2843c0-94.9,77.51-172.804,172.8059-172.804Z"/><path class="cls-4" d="M604.0829,539.1655v-37.96c0-18.186,12.2543-22.5386,20.9631-22.5386h52.9827V397.6056h-73.15c-81.0661,0-99.2578,60.103-99.2578,98.8563v42.7036H458.5718V633.67h47.4507V869.733h94.5V633.67h69.995l3.1585-37.17,5.5355-57.3336Z"/></svg>