<svg id="Layer_1" data-name="Layer 1" xmlns="http://www.w3.org/2000/svg" xmlns:xlink="http://www.w3.org/1999/xlink" viewBox="0 0 700 450"><defs><style>.cls-1{fill:none;}.cls-2{fill:#0863b5;}.cls-3{clip-path:url(#clip-path);}.cls-4{fill:url(#linear-gradient);}.cls-5{fill:url(#linear-gradient-2);}.cls-6{fill:url(#linear-gradient-3);}.cls-7{fill:url(#linear-gradient-4);}.cls-8{fill:url(#linear-gradient-5);}.cls-9{fill:url(#linear-gradient-6);}.cls-10{fill:url(#linear-gradient-7);}.cls-11{fill:url(#linear-gradient-8);}.cls-12{fill:url(#linear-gradient-9);}.cls-13{fill:url(#linear-gradient-10);}.cls-14{fill:url(#linear-gradient-11);}.cls-15{fill:url(#linear-gradient-12);}.cls-16{fill:url(#linear-gradient-13);}.cls-17{fill:url(#linear-gradient-14);}.cls-18{fill:url(#linear-gradient-15);}.cls-19{fill:url(#linear-gradient-16);}.cls-20{fill:url(#linear-gradient-17);}.cls-21{fill:url(#linear-gradient-18);}.cls-22{fill:url(#linear-gradient-19);}.cls-23{fill:url(#linear-gradient-20);}.cls-24{fill:url(#linear-gradient-21);}.cls-25{fill:url(#linear-gradient-22);}.cls-26{fill:url(#linear-gradient-23);}.cls-27{fill:url(#linear-gradient-24);}.cls-28{fill:url(#linear-gradient-25);}.cls-29{fill:url(#linear-gradient-26);}.cls-30{fill:url(#linear-gradient-27);}.cls-31{fill:url(#linear-gradient-28);}.cls-32{fill:url(#linear-gradient-29);}.cls-33{fill:url(#linear-gradient-30);}.cls-34{fill:url(#linear-gradient-31);}.cls-35{fill:url(#linear-gradient-32);}.cls-36{fill:#feb557;}.cls-37{fill:#fea219;}.cls-38{fill:#f88d1d;}.cls-39{fill:#aaa281;}.cls-40{fill:#9b9476;}.cls-41{fill:url(#linear-gradient-33);}.cls-42{fill:url(#linear-gradient-34);}.cls-43{fill:#d0c9a0;}.cls-44{fill:#ed6e4d;}.cls-45{fill:#c4bc97;}.cls-46{fill:#e85b41;}.cls-47{fill:#c74c39;}.cls-48{fill:#bbefe8;}.cls-49{fill:#ace8e3;}.cls-50{fill:#8fc9c5;}.cls-51{fill:#ff7f66;}.cls-52{fill:url(#radial-gradient);}.cls-53{fill:url(#radial-gradient-2);}.cls-54{fill:url(#radial-gradient-3);}.cls-55{fill:url(#radial-gradient-4);}.cls-56{fill:url(#radial-gradient-5);}.cls-57{fill:url(#radial-gradient-6);}.cls-58{fill:url(#radial-gradient-7);}.cls-59{fill:url(#radial-gradient-8);}.cls-60{fill:url(#radial-gradient-9);}.cls-61{fill:url(#radial-gradient-10);}.cls-62{fill:url(#radial-gradient-11);}.cls-63{fill:url(#radial-gradient-12);}.cls-64{fill:url(#radial-gradient-13);}.cls-65{fill:url(#radial-gradient-14);}.cls-66{fill:url(#radial-gradient-15);}.cls-67{fill:url(#radial-gradient-16);}.cls-68{fill:url(#radial-gradient-17);}.cls-69{fill:url(#linear-gradient-35);}.cls-70{fill:url(#linear-gradient-36);}.cls-71{fill:url(#linear-gradient-37);}.cls-72{fill:url(#linear-gradient-38);}.cls-73{fill:url(#linear-gradient-39);}.cls-74{fill:url(#linear-gradient-40);}.cls-75{fill:url(#linear-gradient-41);}.cls-76{fill:url(#linear-gradient-42);}.cls-77{fill:url(#linear-gradient-43);}.cls-78{fill:url(#linear-gradient-44);}.cls-79{fill:url(#linear-gradient-45);}.cls-80{fill:url(#linear-gradient-46);}.cls-81{fill:url(#linear-gradient-47);}.cls-82{fill:url(#linear-gradient-48);}.cls-83{fill:url(#linear-gradient-49);}.cls-84{fill:url(#linear-gradient-50);}.cls-85{fill:url(#linear-gradient-51);}.cls-86{fill:url(#linear-gradient-52);}.cls-87{fill:url(#linear-gradient-53);}.cls-88{fill:url(#linear-gradient-54);}.cls-89{fill:url(#linear-gradient-55);}.cls-90{fill:url(#linear-gradient-56);}.cls-91{fill:url(#linear-gradient-57);}.cls-92{fill:url(#linear-gradient-58);}.cls-93{fill:url(#linear-gradient-59);}.cls-94{fill:url(#linear-gradient-60);}.cls-95{fill:url(#linear-gradient-61);}</style><clipPath id="clip-path"><rect class="cls-1" x="1" y="-1.08" width="787.74" height="451.56"/></clipPath><linearGradient id="linear-gradient" x1="442.33" y1="-185.97" x2="401.53" y2="-149.31" gradientTransform="translate(-38.57 261.84) rotate(5.23)" gradientUnits="userSpaceOnUse"><stop offset="0" stop-color="#f0eff4" stop-opacity="0.04"/><stop offset="0.64" stop-color="#e8e7ea" stop-opacity="0.02"/><stop offset="1" stop-color="#dcdcdc" stop-opacity="0"/></linearGradient><linearGradient id="linear-gradient-2" x1="519.94" y1="-162" x2="498.52" y2="-142.76" gradientTransform="translate(-38.57 261.84) rotate(5.23)" gradientUnits="userSpaceOnUse"><stop offset="0" stop-color="#f0eff4" stop-opacity="0.01"/><stop offset="1" stop-color="#dcdcdc" stop-opacity="0"/></linearGradient><linearGradient id="linear-gradient-3" x1="-6004.49" y1="904.94" x2="-6017.5" y2="916.64" gradientTransform="matrix(-0.98, 0.22, 0.22, 0.98, -5389.48, 614.07)" gradientUnits="userSpaceOnUse"><stop offset="0" stop-color="#f0eff4" stop-opacity="0.02"/><stop offset="0.89" stop-color="#e0e0e1" stop-opacity="0"/><stop offset="1" stop-color="#dcdcdc" stop-opacity="0"/></linearGradient><linearGradient id="linear-gradient-4" x1="-5736.02" y1="1297.39" x2="-5765.41" y2="1323.8" gradientTransform="matrix(-0.94, 0.35, 0.35, 0.94, -5246.81, 951.91)" xlink:href="#linear-gradient-3"/><linearGradient id="linear-gradient-5" x1="207.11" y1="137.49" x2="184.57" y2="157.75" gradientUnits="userSpaceOnUse"><stop offset="0" stop-color="#f0eff4" stop-opacity="0.02"/><stop offset="0.89" stop-color="#e0e0e1" stop-opacity="0"/><stop offset="1" stop-color="#dcdcdc" stop-opacity="0"/></linearGradient><linearGradient id="linear-gradient-6" x1="452.8" y1="137.05" x2="369.74" y2="479.95" gradientUnits="userSpaceOnUse"><stop offset="0.03" stop-color="#cdcddc" stop-opacity="0"/><stop offset="0.98" stop-color="#dcdcdc"/></linearGradient><linearGradient id="linear-gradient-7" x1="-1849.14" y1="2579.18" x2="-1919.21" y2="2675.11" gradientTransform="matrix(0.45, -0.89, 0.89, 0.45, -1301.39, -2694.82)" gradientUnits="userSpaceOnUse"><stop offset="0.03" stop-color="#cdcddc" stop-opacity="0"/><stop offset="1" stop-color="#dcdcdc" stop-opacity="0.5"/></linearGradient><linearGradient id="linear-gradient-8" x1="-1849.14" y1="2579.18" x2="-1919.21" y2="2675.11" xlink:href="#linear-gradient-7"/><linearGradient id="linear-gradient-9" x1="388.21" y1="84.52" x2="359.78" y2="509.35" xlink:href="#linear-gradient-6"/><linearGradient id="linear-gradient-10" x1="-1716.41" y1="2835.67" x2="-1794.55" y2="2942.65" gradientTransform="matrix(0.45, -0.89, 0.89, 0.45, -1301.39, -2694.82)" xlink:href="#linear-gradient-6"/><linearGradient id="linear-gradient-11" x1="-1716.41" y1="2835.67" x2="-1794.55" y2="2942.65" gradientTransform="matrix(0.45, -0.89, 0.89, 0.45, -1301.39, -2694.82)" xlink:href="#linear-gradient-6"/><linearGradient id="linear-gradient-12" x1="492.19" y1="-1494.06" x2="408.35" y2="-1379.28" gradientTransform="translate(-455.41 1301.86) rotate(28.57)" gradientUnits="userSpaceOnUse"><stop offset="0" stop-color="#dcdcdc" stop-opacity="0.5"/><stop offset="0.03" stop-color="#dedede" stop-opacity="0.53"/><stop offset="0.17" stop-color="#e6e5e8" stop-opacity="0.64"/><stop offset="0.3" stop-color="#ebebee" stop-opacity="0.73"/><stop offset="0.43" stop-color="#efeef3" stop-opacity="0.78"/><stop offset="0.53" stop-color="#f0eff4" stop-opacity="0.8"/><stop offset="0.7" stop-color="#edecf1" stop-opacity="0.83"/><stop offset="0.88" stop-color="#e5e5e7" stop-opacity="0.91"/><stop offset="1" stop-color="#dcdcdc"/></linearGradient><linearGradient id="linear-gradient-13" x1="492.19" y1="-1494.06" x2="408.35" y2="-1379.28" xlink:href="#linear-gradient-12"/><linearGradient id="linear-gradient-14" x1="532.36" y1="161.62" x2="377.96" y2="373.01" gradientTransform="matrix(1, 0, 0, 1, 0, 0)" xlink:href="#linear-gradient-12"/><linearGradient id="linear-gradient-15" x1="532.36" y1="161.62" x2="377.96" y2="373.01" gradientTransform="matrix(1, 0, 0, 1, 0, 0)" xlink:href="#linear-gradient-12"/><linearGradient id="linear-gradient-16" x1="430.61" y1="119.33" x2="325.07" y2="577.68" gradientUnits="userSpaceOnUse"><stop offset="0" stop-color="#dcdcdc" stop-opacity="0.1"/><stop offset="0.07" stop-color="#e0e0e1" stop-opacity="0.19"/><stop offset="0.2" stop-color="#e7e7e9" stop-opacity="0.32"/><stop offset="0.32" stop-color="#ecebef" stop-opacity="0.42"/><stop offset="0.43" stop-color="#efeef3" stop-opacity="0.48"/><stop offset="0.53" stop-color="#f0eff4" stop-opacity="0.5"/><stop offset="0.62" stop-color="#efeef3" stop-opacity="0.52"/><stop offset="0.72" stop-color="#edecf0" stop-opacity="0.58"/><stop offset="0.81" stop-color="#e9e8ec" stop-opacity="0.68"/><stop offset="0.9" stop-color="#e4e3e5" stop-opacity="0.81"/><stop offset="0.99" stop-color="#ddd" stop-opacity="0.99"/><stop offset="1" stop-color="#dcdcdc"/></linearGradient><linearGradient id="linear-gradient-17" x1="451.08" y1="-1582.18" x2="396.47" y2="-1482.67" gradientTransform="translate(-503.14 1316.09) rotate(29.41)" xlink:href="#linear-gradient-16"/><linearGradient id="linear-gradient-18" x1="445.46" y1="-1585.26" x2="390.86" y2="-1485.76" gradientTransform="translate(-503.14 1316.09) rotate(29.41)" xlink:href="#linear-gradient-16"/><linearGradient id="linear-gradient-19" x1="462.75" y1="-1575.77" x2="408.14" y2="-1476.27" gradientTransform="translate(-503.14 1316.09) rotate(29.41)" xlink:href="#linear-gradient-16"/><linearGradient id="linear-gradient-20" x1="443.49" y1="-1586.34" x2="388.88" y2="-1486.83" gradientTransform="translate(-503.14 1316.09) rotate(29.41)" xlink:href="#linear-gradient-16"/><linearGradient id="linear-gradient-21" x1="452.86" y1="-1581.2" x2="398.25" y2="-1481.69" gradientTransform="translate(-503.14 1316.09) rotate(29.41)" xlink:href="#linear-gradient-16"/><linearGradient id="linear-gradient-22" x1="456.3" y1="-1579.3" x2="401.7" y2="-1479.81" gradientTransform="translate(-503.14 1316.09) rotate(29.41)" xlink:href="#linear-gradient-16"/><linearGradient id="linear-gradient-23" x1="461.55" y1="-1576.43" x2="406.94" y2="-1476.92" gradientTransform="translate(-503.14 1316.09) rotate(29.41)" xlink:href="#linear-gradient-16"/><linearGradient id="linear-gradient-24" x1="468.96" y1="-1572.36" x2="414.36" y2="-1472.86" gradientTransform="translate(-503.14 1316.09) rotate(29.41)" xlink:href="#linear-gradient-16"/><linearGradient id="linear-gradient-25" x1="476.4" y1="-1568.27" x2="421.8" y2="-1468.78" gradientTransform="translate(-503.14 1316.09) rotate(29.41)" xlink:href="#linear-gradient-16"/><linearGradient id="linear-gradient-26" x1="460.3" y1="-1577.12" x2="405.69" y2="-1477.61" gradientTransform="translate(-503.14 1316.09) rotate(29.41)" xlink:href="#linear-gradient-16"/><linearGradient id="linear-gradient-27" x1="472.96" y1="-1570.17" x2="418.35" y2="-1470.66" gradientTransform="translate(-503.14 1316.09) rotate(29.41)" xlink:href="#linear-gradient-16"/><linearGradient id="linear-gradient-28" x1="467.71" y1="-1573.05" x2="413.11" y2="-1473.55" gradientTransform="translate(-503.14 1316.09) rotate(29.41)" xlink:href="#linear-gradient-16"/><linearGradient id="linear-gradient-29" x1="485.78" y1="-1563.14" x2="431.17" y2="-1463.63" gradientTransform="translate(-503.14 1316.09) rotate(29.41)" xlink:href="#linear-gradient-16"/><linearGradient id="linear-gradient-30" x1="466.52" y1="-1573.7" x2="411.92" y2="-1474.21" gradientTransform="translate(-503.14 1316.09) rotate(29.41)" xlink:href="#linear-gradient-16"/><linearGradient id="linear-gradient-31" x1="483.8" y1="-1564.22" x2="429.2" y2="-1464.72" gradientTransform="translate(-503.14 1316.09) rotate(29.41)" xlink:href="#linear-gradient-16"/><linearGradient id="linear-gradient-32" x1="478.19" y1="-1567.3" x2="423.58" y2="-1467.79" gradientTransform="translate(-503.14 1316.09) rotate(29.41)" xlink:href="#linear-gradient-16"/><linearGradient id="linear-gradient-33" x1="552.21" y1="151.28" x2="551.5" y2="262.73" gradientUnits="userSpaceOnUse"><stop offset="0" stop-color="#ebe7ca"/><stop offset="0.17" stop-color="#e5e0c0"/><stop offset="0.68" stop-color="#d6cfa9"/><stop offset="1" stop-color="#d0c9a0"/></linearGradient><linearGradient id="linear-gradient-34" x1="552.09" y1="214.88" x2="552.8" y2="313.46" gradientUnits="userSpaceOnUse"><stop offset="0.09" stop-color="#d0c9a0"/><stop offset="1" stop-color="#c4bc97"/></linearGradient><radialGradient id="radial-gradient" cx="496.29" cy="34.8" r="11.12" gradientUnits="userSpaceOnUse"><stop offset="0" stop-color="#ffffd3" stop-opacity="0.5"/><stop offset="0.07" stop-color="#ffffd3" stop-opacity="0.44"/><stop offset="0.27" stop-color="#ffffd3" stop-opacity="0.28"/><stop offset="0.47" stop-color="#ffffd3" stop-opacity="0.16"/><stop offset="0.66" stop-color="#ffffd3" stop-opacity="0.07"/><stop offset="0.84" stop-color="#ffffd3" stop-opacity="0.02"/><stop offset="1" stop-color="#ffffd3" stop-opacity="0"/></radialGradient><radialGradient id="radial-gradient-2" cx="362.45" cy="139.88" r="11.12" xlink:href="#radial-gradient"/><radialGradient id="radial-gradient-3" cx="269.88" cy="29.65" r="11.12" xlink:href="#radial-gradient"/><radialGradient id="radial-gradient-4" cx="547.2" cy="60.93" r="11.12" xlink:href="#radial-gradient"/><radialGradient id="radial-gradient-5" cx="664.64" cy="5.28" r="11.12" xlink:href="#radial-gradient"/><radialGradient id="radial-gradient-6" cx="589.07" cy="45.29" r="11.12" xlink:href="#radial-gradient"/><radialGradient id="radial-gradient-7" cx="410.11" cy="45.29" r="6.29" xlink:href="#radial-gradient"/><radialGradient id="radial-gradient-8" cx="206.52" cy="101.51" r="6.29" xlink:href="#radial-gradient"/><radialGradient id="radial-gradient-9" cx="106.17" cy="29.64" r="6.29" xlink:href="#radial-gradient"/><radialGradient id="radial-gradient-10" cx="514.87" cy="115.39" r="6.29" xlink:href="#radial-gradient"/><radialGradient id="radial-gradient-11" cx="462.57" cy="83.82" r="6.29" xlink:href="#radial-gradient"/><radialGradient id="radial-gradient-12" cx="410.11" cy="118.26" r="6.29" xlink:href="#radial-gradient"/><radialGradient id="radial-gradient-13" cx="618.33" cy="5.28" r="6.29" xlink:href="#radial-gradient"/><radialGradient id="radial-gradient-14" cx="618.33" cy="115.39" r="6.29" xlink:href="#radial-gradient"/><radialGradient id="radial-gradient-15" cx="74.34" cy="115.39" r="6.29" xlink:href="#radial-gradient"/><radialGradient id="radial-gradient-16" cx="197.68" cy="45.29" r="6.29" xlink:href="#radial-gradient"/><radialGradient id="radial-gradient-17" cx="-309.09" cy="-1868.77" r="6.29" gradientTransform="matrix(0.81, 0.59, -0.59, 0.81, -806.67, 1759.01)" xlink:href="#radial-gradient"/><linearGradient id="linear-gradient-35" x1="-23.62" y1="1868.62" x2="129.08" y2="1744.16" gradientTransform="translate(-169.88 -1286.46) rotate(-27.88)" gradientUnits="userSpaceOnUse"><stop offset="0.03" stop-color="#e6e6e6"/><stop offset="0.15" stop-color="#ebebeb"/><stop offset="0.62" stop-color="#fafafa"/><stop offset="1" stop-color="#fff"/></linearGradient><linearGradient id="linear-gradient-36" x1="-1064.09" y1="2410.51" x2="-1008.02" y2="2364.81" gradientTransform="translate(-709.45 -2188.57) rotate(-45)" xlink:href="#linear-gradient-35"/><linearGradient id="linear-gradient-37" x1="-1039.68" y1="2555.14" x2="-969.6" y2="2498.02" gradientTransform="translate(-709.45 -2188.57) rotate(-45)" xlink:href="#linear-gradient-35"/><linearGradient id="linear-gradient-38" x1="-962.09" y1="2540.98" x2="-927.05" y2="2512.42" gradientTransform="translate(-709.45 -2188.57) rotate(-45)" xlink:href="#linear-gradient-35"/><linearGradient id="linear-gradient-39" x1="-786.39" y1="2684.76" x2="-751.35" y2="2656.2" gradientTransform="translate(-709.45 -2188.57) rotate(-45)" xlink:href="#linear-gradient-35"/><linearGradient id="linear-gradient-40" x1="-983.93" y1="2408.96" x2="-948.89" y2="2380.4" gradientTransform="translate(-709.45 -2188.57) rotate(-45)" xlink:href="#linear-gradient-35"/><linearGradient id="linear-gradient-41" x1="-6231.57" y1="-189.56" x2="-6196.53" y2="-218.12" gradientTransform="translate(-5837.9 -1081.75) rotate(-170.55)" xlink:href="#linear-gradient-35"/><linearGradient id="linear-gradient-42" x1="-1066.06" y1="2472.74" x2="-995.97" y2="2415.62" gradientTransform="translate(-709.45 -2188.57) rotate(-45)" xlink:href="#linear-gradient-35"/><linearGradient id="linear-gradient-43" x1="-1213.74" y1="-2882.67" x2="-1041.49" y2="-3023.06" gradientTransform="translate(-1852.23 2579.46) rotate(66.12)" xlink:href="#linear-gradient-35"/><linearGradient id="linear-gradient-44" x1="-1542.53" y1="-2694.33" x2="-1456.41" y2="-2764.52" gradientTransform="translate(-1852.23 2579.46) rotate(66.12)" xlink:href="#linear-gradient-35"/><linearGradient id="linear-gradient-45" x1="65.71" y1="487.39" x2="303.02" y2="293.97" gradientUnits="userSpaceOnUse"><stop offset="0" stop-color="#e6e6e6"/><stop offset="0.38" stop-color="#eaeaea" stop-opacity="0.97"/><stop offset="0.8" stop-color="#f7f7f7" stop-opacity="0.87"/><stop offset="0.99" stop-color="#fff" stop-opacity="0.8"/></linearGradient><linearGradient id="linear-gradient-46" x1="117.01" y1="300.73" x2="246.06" y2="195.55" gradientTransform="matrix(1, 0, 0, 1, 0, 0)" xlink:href="#linear-gradient-35"/><linearGradient id="linear-gradient-47" x1="-648.81" y1="-2073.02" x2="-445.9" y2="-2238.39" gradientTransform="translate(-1115.72 2123.08) rotate(45)" xlink:href="#linear-gradient-35"/><linearGradient id="linear-gradient-48" x1="173.51" y1="430.28" x2="248.88" y2="368.85" gradientTransform="matrix(1, 0, 0, 1, 0, 0)" xlink:href="#linear-gradient-35"/><linearGradient id="linear-gradient-49" x1="266.58" y1="351.76" x2="341.94" y2="290.34" gradientTransform="matrix(1, 0, 0, 1, 0, 0)" xlink:href="#linear-gradient-35"/><linearGradient id="linear-gradient-50" x1="21.22" y1="282.24" x2="96.58" y2="220.82" gradientTransform="matrix(1, 0, 0, 1, 0, 0)" xlink:href="#linear-gradient-35"/><linearGradient id="linear-gradient-51" x1="448.18" y1="453.99" x2="523.54" y2="392.57" gradientTransform="matrix(1, 0, 0, 1, 0, 0)" xlink:href="#linear-gradient-35"/><linearGradient id="linear-gradient-52" x1="645.17" y1="327.16" x2="682.85" y2="296.45" gradientTransform="matrix(1, 0, 0, 1, 0, 0)" xlink:href="#linear-gradient-35"/><linearGradient id="linear-gradient-53" x1="109.84" y1="224.87" x2="147.52" y2="194.15" gradientTransform="matrix(1, 0, 0, 1, 0, 0)" xlink:href="#linear-gradient-35"/><linearGradient id="linear-gradient-54" x1="224.62" y1="503.53" x2="407.09" y2="354.81" gradientTransform="matrix(1, 0, 0, 1, 0, 0)" xlink:href="#linear-gradient-35"/><linearGradient id="linear-gradient-55" x1="846.05" y1="23.19" x2="705.69" y2="-154.49" gradientTransform="matrix(0.99, 0.13, -0.13, 0.99, -49.01, 364.54)" gradientUnits="userSpaceOnUse"><stop offset="0" stop-color="#ededed"/><stop offset="1" stop-color="#fff" stop-opacity="0.8"/></linearGradient><linearGradient id="linear-gradient-56" x1="542.77" y1="511.54" x2="705.28" y2="379.09" gradientTransform="matrix(1, 0, 0, 1, 0, 0)" xlink:href="#linear-gradient-35"/><linearGradient id="linear-gradient-57" x1="-50.83" y1="503.33" x2="85.11" y2="376.45" gradientTransform="matrix(1, 0, 0, 1, 0, 0)" xlink:href="#linear-gradient-35"/><linearGradient id="linear-gradient-58" x1="-50.83" y1="503.33" x2="85.11" y2="376.45" gradientTransform="matrix(1, 0, 0, 1, 0, 0)" xlink:href="#linear-gradient-35"/><linearGradient id="linear-gradient-59" x1="90.92" y1="393.11" x2="158.9" y2="329.67" gradientTransform="matrix(1, 0, 0, 1, 0, 0)" xlink:href="#linear-gradient-35"/><linearGradient id="linear-gradient-60" x1="90.92" y1="393.11" x2="158.9" y2="329.67" gradientTransform="matrix(1, 0, 0, 1, 0, 0)" xlink:href="#linear-gradient-35"/><linearGradient id="linear-gradient-61" x1="697.17" y1="499.29" x2="807.68" y2="396.14" gradientTransform="matrix(1, 0, 0, 1, 0, 0)" xlink:href="#linear-gradient-35"/></defs><title>Startup</title><rect class="cls-2" width="700" height="450"/><g class="cls-3"><path class="cls-4" d="M282.59-51.13c6.71,8.06,298.7,396.5,298.7,396.5l-82.74,49.24L179.74-54.32Z"/><path class="cls-5" d="M357.68-20.19c6.71,8.06,298.71,396.5,298.71,396.5l-82.75,49.24L254.83-23.38Z"/><path class="cls-6" d="M786-37.31c-5.59,8.88-243.67,432.52-243.67,432.52l49.91,44.5L855.45-48.77Z"/><path class="cls-7" d="M672.78-50.31c-4.36,9.54-184.21,461-184.21,461L544,448.17,740.15-70.89Z"/><path class="cls-8" d="M56.1-17.47C63.52-10,389.7,350.17,389.7,350.17l-77.91,56.57-358.4-418Z"/><path class="cls-9" d="M-32.51,158.82c2.36-7.1,7.53-12.88,12.82-18.18C30.18,90.73,103.65,65.47,173.67,74.18S308.73,125.36,344.86,186c28.61-13.32,62-11.87,92.07-2.2a128.17,128.17,0,0,1,71.65,58.48c43.2-77.71,125.69-119.51,213.79-107.47,39.43,5.39,79.55,23.52,99.88,57.72l-5.56,424.09-844-8.54Z"/><path class="cls-10" d="M201.79,166.1a6.25,6.25,0,0,1-2.53,2.61,6.05,6.05,0,0,1-3.56.72c-.56-.06-1.11-.11-1.67-.14a6.11,6.11,0,0,1-5.51-4.24h0a6.15,6.15,0,0,0-7.74-4l-.2.07a6.17,6.17,0,0,0-4,7.75,6.14,6.14,0,0,1-.36,4.69,6.22,6.22,0,0,1-1.61,2c-.43.34-.86.71-1.28,1.09a6.1,6.1,0,0,1-6.87.88,6.16,6.16,0,0,0-8.28,2.69l-.09.18a6.13,6.13,0,0,0,2.68,8.27,6.15,6.15,0,0,1,2.61,2.54,6,6,0,0,1,.7,3.56c-.05.55-.1,1.11-.13,1.66a6.13,6.13,0,0,1-4.23,5.52,6.16,6.16,0,0,0-4,7.75l.06.19a6.17,6.17,0,0,0,7.75,4h0a6.11,6.11,0,0,1,6.66,2c.35.43.71.86,1.09,1.27a6.12,6.12,0,0,1,.89,6.88,6.15,6.15,0,0,0,2.67,8.28l.19.09a6.15,6.15,0,0,0,8.28-2.68,6.13,6.13,0,0,1,2.53-2.61,6,6,0,0,1,3.56-.71c.56.06,1.12.1,1.67.13a6.11,6.11,0,0,1,5.51,4.24,6.16,6.16,0,0,0,7.75,3.95l.2-.06a6.15,6.15,0,0,0,3.95-7.75,6.17,6.17,0,0,1,.37-4.7,6,6,0,0,1,1.61-2c.43-.35.85-.71,1.27-1.08a6.12,6.12,0,0,1,6.88-.89,6.14,6.14,0,0,0,4.7.37,6.05,6.05,0,0,0,3.57-3.05l.1-.19a6.15,6.15,0,0,0-2.68-8.28,6.11,6.11,0,0,1-3.32-6.09c.06-.55.11-1.11.13-1.67a6.1,6.1,0,0,1,4.24-5.5,6.15,6.15,0,0,0,4-7.75l-.07-.21a6.15,6.15,0,0,0-7.75-4,6.14,6.14,0,0,1-4.69-.36,6.21,6.21,0,0,1-2-1.61c-.35-.44-.72-.86-1.09-1.28a6.1,6.1,0,0,1-.88-6.88,6.15,6.15,0,0,0-2.69-8.27l-.19-.1A6.15,6.15,0,0,0,201.79,166.1Zm8,40.56a19.29,19.29,0,1,1-8.41-25.94A19.29,19.29,0,0,1,209.77,206.66Z"/><path class="cls-11" d="M173.7,188.25A21.21,21.21,0,1,0,202.23,179,21.21,21.21,0,0,0,173.7,188.25Zm36.07,18.41a19.29,19.29,0,1,1-8.41-25.94A19.29,19.29,0,0,1,209.77,206.66Z"/><path class="cls-12" d="M-14.07,17.73C9.43,13.47,34.52,22.68,51,40s24.37,41.94,22.85,65.77a116.49,116.49,0,0,1,96.75,2.35,116.54,116.54,0,0,1,60.59,75.46c9.87-10.49,21.09-13,35.35-15,37.84-5.23,77.88,2.39,109.43,23.92S429.62,249.89,431.6,288c8.35-27.62,29.24-45.39,57.31-52.06s59.39,2.63,79.27,23.54c-.61-32.92,11-65.46,34.57-88.42s59.29-33.89,91-24.91c.68-28.55,8.73-55,32.3-71.15s57.38-17.48,80.29-.42l-24.49,459.8L-66.76,551.78Z"/><path class="cls-13" d="M495.91,169.25a7,7,0,0,1-2.82,2.91,6.78,6.78,0,0,1-4,.8c-.63-.07-1.24-.12-1.87-.15a6.82,6.82,0,0,1-6.14-4.73h0a6.85,6.85,0,0,0-8.64-4.41l-.21.07a6.86,6.86,0,0,0-4.41,8.65,6.81,6.81,0,0,1-2.21,7.42c-.48.4-1,.8-1.42,1.22a6.82,6.82,0,0,1-7.67,1,6.79,6.79,0,0,0-5.23-.42,6.87,6.87,0,0,0-4,3.41l-.1.21a6.86,6.86,0,0,0,3,9.22,6.86,6.86,0,0,1,2.91,2.83,6.67,6.67,0,0,1,.78,4c-.06.61-.11,1.24-.14,1.86a6.84,6.84,0,0,1-4.73,6.15,6.86,6.86,0,0,0-4.41,8.64l.07.21a6.86,6.86,0,0,0,8.65,4.41h0a6.81,6.81,0,0,1,7.43,2.2c.39.48.8,1,1.22,1.43a6.8,6.8,0,0,1,1,7.66,6.87,6.87,0,0,0,3,9.23l.21.11a6.86,6.86,0,0,0,9.23-3,6.92,6.92,0,0,1,2.82-2.9,6.76,6.76,0,0,1,4-.8c.62.07,1.25.12,1.86.15a6.82,6.82,0,0,1,6.15,4.72,6.84,6.84,0,0,0,8.64,4.41l.22-.06a6.85,6.85,0,0,0,4.41-8.64,6.84,6.84,0,0,1,.41-5.24,6.76,6.76,0,0,1,1.79-2.2c.49-.39,1-.8,1.42-1.21a6.82,6.82,0,0,1,7.68-1,6.86,6.86,0,0,0,9.22-3l.11-.21a6.86,6.86,0,0,0-3-9.23,6.89,6.89,0,0,1-2.91-2.82,6.76,6.76,0,0,1-.8-4c.07-.62.13-1.24.15-1.86a6.84,6.84,0,0,1,4.73-6.15,6.85,6.85,0,0,0,4.41-8.64l-.07-.22a6.85,6.85,0,0,0-8.64-4.41,6.84,6.84,0,0,1-5.24-.41,6.71,6.71,0,0,1-2.2-1.79c-.38-.49-.79-1-1.21-1.42a6.81,6.81,0,0,1-1-7.68,6.86,6.86,0,0,0-3-9.22l-.21-.11A6.86,6.86,0,0,0,495.91,169.25Zm8.9,45.23a21.5,21.5,0,1,1-9.38-28.93A21.51,21.51,0,0,1,504.81,214.48Z"/><path class="cls-14" d="M464.58,194a23.65,23.65,0,1,0,31.82-10.32A23.65,23.65,0,0,0,464.58,194Zm40.23,20.53a21.5,21.5,0,1,1-9.38-28.93A21.51,21.51,0,0,1,504.81,214.48Z"/><path class="cls-15" d="M640.12,279.27a7.46,7.46,0,0,1-3-3.11,7.3,7.3,0,0,1-.74-4.28c.09-.67.17-1.33.21-2a7.32,7.32,0,0,1,5.25-6.45h0a7.36,7.36,0,0,0,5-9.14l-.08-.23a7.36,7.36,0,0,0-9.14-5,7.35,7.35,0,0,1-5.6-.6,7.11,7.11,0,0,1-2.3-2c-.41-.53-.83-1.05-1.27-1.56a7.31,7.31,0,0,1-.83-8.25,7.38,7.38,0,0,0-3-10l-.22-.11a7.35,7.35,0,0,0-10,2.94,7.4,7.4,0,0,1-3.11,3,7.28,7.28,0,0,1-4.28.73c-.66-.09-1.33-.16-2-.21a7.32,7.32,0,0,1-6.46-5.25,7.37,7.37,0,0,0-9.15-5l-.23.07a7.37,7.37,0,0,0-5,9.14h0a7.3,7.3,0,0,1-2.58,7.9c-.53.41-1,.83-1.56,1.27a7.33,7.33,0,0,1-8.25.83,7.43,7.43,0,0,0-5.61-.6,7.35,7.35,0,0,0-4.38,3.54l-.12.22a7.36,7.36,0,0,0,2.95,10,7.32,7.32,0,0,1,3,3.11,7.18,7.18,0,0,1,.74,4.27c-.09.67-.16,1.34-.21,2a7.3,7.3,0,0,1-5.24,6.45,7.37,7.37,0,0,0-5,9.15l.06.23a7.35,7.35,0,0,0,9.14,5,7.41,7.41,0,0,1,5.61.59,7.31,7.31,0,0,1,2.31,2c.4.53.82,1.05,1.25,1.56a7.31,7.31,0,0,1,.84,8.26,7.37,7.37,0,0,0,2.94,10l.22.12a7.36,7.36,0,0,0,10-2.94,7.4,7.4,0,0,1,3.11-3,7.3,7.3,0,0,1,4.28-.74c.67.09,1.33.17,2,.21a7.33,7.33,0,0,1,6.45,5.25,7.35,7.35,0,0,0,9.14,5l.24-.07a7.36,7.36,0,0,0,5-9.14,7.3,7.3,0,0,1,.59-5.6,7.16,7.16,0,0,1,2-2.31c.53-.4,1.05-.83,1.56-1.26a7.29,7.29,0,0,1,8.26-.83,7.38,7.38,0,0,0,10-2.95l.11-.22A7.35,7.35,0,0,0,640.12,279.27Zm-48.76,8.24a23.07,23.07,0,1,1,31.3-9.23A23.07,23.07,0,0,1,591.36,287.51Z"/><path class="cls-16" d="M614.53,245a25.37,25.37,0,1,0,10.15,34.42A25.36,25.36,0,0,0,614.53,245Zm-23.17,42.55a23.07,23.07,0,1,1,31.3-9.23A23.07,23.07,0,0,1,591.36,287.51Z"/><path class="cls-17" d="M497,294.29a13.77,13.77,0,0,1-7.66-2.35,13.3,13.3,0,0,1-5-6.27c-.45-1.16-.91-2.3-1.42-3.42a13.45,13.45,0,0,1,2.81-15.05v0a13.56,13.56,0,0,0,0-19.18l-.33-.31a13.56,13.56,0,0,0-19.17,0,13.5,13.5,0,0,1-9.58,4,13.36,13.36,0,0,1-5.47-1.17c-1.13-.5-2.27-1-3.42-1.42a13.44,13.44,0,0,1-8.62-12.61,13.55,13.55,0,0,0-13.57-13.54h-.46a13.55,13.55,0,0,0-13.55,13.54,13.57,13.57,0,0,1-2.35,7.67,13.38,13.38,0,0,1-6.29,4.94c-1.14.44-2.28.92-3.4,1.42a13.52,13.52,0,0,1-15.07-2.8,13.56,13.56,0,0,0-19.17,0L365,248a13.56,13.56,0,0,0,0,19.18v0a13.48,13.48,0,0,1,2.79,15.05q-.75,1.68-1.41,3.42a13.49,13.49,0,0,1-12.61,8.62,13.55,13.55,0,0,0-13.57,13.55v.46a13.56,13.56,0,0,0,13.57,13.56,13.55,13.55,0,0,1,7.64,2.35,13.38,13.38,0,0,1,5,6.27q.66,1.74,1.41,3.42A13.5,13.5,0,0,1,365,349a13.56,13.56,0,0,0,0,19.17l.31.33a13.56,13.56,0,0,0,19.17,0,13.55,13.55,0,0,1,9.6-4,13.34,13.34,0,0,1,5.47,1.18c1.12.51,2.26,1,3.4,1.41a13.48,13.48,0,0,1,8.64,12.63,13.55,13.55,0,0,0,13.55,13.55h.46a13.56,13.56,0,0,0,13.57-13.55,13.54,13.54,0,0,1,2.35-7.66,13.32,13.32,0,0,1,6.27-5c1.15-.44,2.29-.9,3.42-1.41a13.48,13.48,0,0,1,15,2.81,13.56,13.56,0,0,0,19.17,0l.33-.33a13.54,13.54,0,0,0,0-19.17A13.43,13.43,0,0,1,483,333.9c.51-1.12,1-2.26,1.42-3.42A13.47,13.47,0,0,1,497,321.86a13.55,13.55,0,0,0,13.55-13.56v-.46A13.55,13.55,0,0,0,497,294.29Zm-71.61,56.28a42.5,42.5,0,1,1,42.5-42.49A42.49,42.49,0,0,1,425.39,350.57Z"/><path class="cls-18" d="M425.39,261.33a46.75,46.75,0,1,0,46.74,46.75A46.73,46.73,0,0,0,425.39,261.33Zm0,89.24a42.5,42.5,0,1,1,42.5-42.49A42.49,42.49,0,0,1,425.39,350.57Z"/><path class="cls-19" d="M817.87,174.53c-81.31-26.31-149.28,17.58-157,98.21-20.86-9.65-45.85-9.08-65.44,3.36C574,289.71,561,315.65,555.86,342.21s-3.54,54.06-1.88,81.16c-12.19-59-32.94-120.47-109.35-151.45-67.4-27.32-137.74-6.17-170.84,18.47,5.71-53-58.93-111.89-93.58-129.19C57,99.65-53.14,221.74-66,250.69l79.39,456,766.48-79Z"/><path class="cls-20" d="M609.12,205.68a32.36,32.36,0,0,0-8.43-.74,28.43,28.43,0,0,1,2.77-16.73l10.48,5.91A61,61,0,0,0,609.12,205.68Z"/><path class="cls-21" d="M615.28,191.74l-10.48-5.91a28.43,28.43,0,0,1,12.88-11,32.58,32.58,0,0,0,5,6.84A61.26,61.26,0,0,0,615.28,191.74Z"/><path class="cls-22" d="M608.4,208.38a33.45,33.45,0,0,0-.89,11.53,28.59,28.59,0,0,1-6.3-12.2A31.42,31.42,0,0,1,608.4,208.38Z"/><path class="cls-23" d="M624.62,179.61a30.87,30.87,0,0,1-4.29-5.8,28.42,28.42,0,0,1,13.69-.92A33.65,33.65,0,0,0,624.62,179.61Z"/><path class="cls-24" d="M638.88,174.2a26.6,26.6,0,0,1,3,1.3l-7,12.35a48.46,48.46,0,0,1-8.3-6.26C630.8,177.44,635.19,174.79,638.88,174.2Z"/><path class="cls-25" d="M624.64,183.58a52,52,0,0,0,8.89,6.65l-5,9-10.83-6.1A58.08,58.08,0,0,1,624.64,183.58Z"/><path class="cls-26" d="M616.31,195.46l10.83,6.1-5,9a51.2,51.2,0,0,0-10.28-4.18A58.1,58.1,0,0,1,616.31,195.46Z"/><path class="cls-27" d="M611.1,209a47.34,47.34,0,0,1,9.65,3.87l-7,12.34a25.91,25.91,0,0,1-2.63-1.86C609.74,219.92,609.75,214.79,611.1,209Z"/><path class="cls-28" d="M631.45,220.5c-4.24,4.14-8.62,6.8-12.32,7.37a24.79,24.79,0,0,1-3-1.29l7-12.34A47.74,47.74,0,0,1,631.45,220.5Z"/><path class="cls-29" d="M646.92,193.06a48.55,48.55,0,0,1-9.67-3.87l7-12.35a25.91,25.91,0,0,1,2.63,1.86C648.27,182.17,648.27,187.29,646.92,193.06Z"/><path class="cls-30" d="M633.38,218.5a51.77,51.77,0,0,0-8.91-6.64l5-9L640.35,209A59,59,0,0,1,633.38,218.5Z"/><path class="cls-31" d="M641.69,206.63l-10.83-6.11,5-9a51.89,51.89,0,0,0,10.3,4.17A59,59,0,0,1,641.69,206.63Z"/><path class="cls-32" d="M633.4,222.47a30.92,30.92,0,0,1,4.29,5.81,28.67,28.67,0,0,1-13.69.91A32.91,32.91,0,0,0,633.4,222.47Z"/><path class="cls-33" d="M649.62,193.7a33.29,33.29,0,0,0,.88-11.51,28.57,28.57,0,0,1,6.3,12.18A30.25,30.25,0,0,1,649.62,193.7Z"/><path class="cls-34" d="M642.73,210.35l10.48,5.91a28.48,28.48,0,0,1-12.88,11,32,32,0,0,0-5-6.84A62.68,62.68,0,0,0,642.73,210.35Z"/><path class="cls-35" d="M648.89,196.41a32.44,32.44,0,0,0,8.45.73,28.49,28.49,0,0,1-2.79,16.74L644.07,208A61.5,61.5,0,0,0,648.89,196.41Z"/><path class="cls-36" d="M566,294l-13.92-4v-.08l-.12,0-.13,0V290l-13.92,4s-43,97.44-43,174.11H609C609,385.41,566,294,566,294Z"/><path class="cls-37" d="M531.49,369.3c-2.88-29.29,4.35-61,8.39-75.89l12-3.4v-.08l.13,0,.12,0V290L566,294s.12.26.38.78c3.32,16.43,8.69,44.86,9.6,60.5C579,406.41,535,405.06,531.49,369.3Z"/><path class="cls-38" d="M550.4,347.71c-12.15,0-11.24-34-9.58-54.57l11-3.13v-.08l.13,0,.12,0V290l12.18,3.46C565.56,314.38,567.56,347.71,550.4,347.71Z"/><path class="cls-37" d="M521.93,334.3a7.27,7.27,0,1,1-7.27-7.26A7.27,7.27,0,0,1,521.93,334.3Z"/><path class="cls-38" d="M584.91,402.3a7.27,7.27,0,1,1-7.27-7.26A7.28,7.28,0,0,1,584.91,402.3Z"/><path class="cls-38" d="M603.37,327a7.26,7.26,0,1,1-7.26-7.26A7.26,7.26,0,0,1,603.37,327Z"/><path class="cls-38" d="M547.12,424.19a7.26,7.26,0,1,1-7.26-7.26A7.26,7.26,0,0,1,547.12,424.19Z"/><circle class="cls-37" cx="521.07" cy="372" r="3.63"/><path class="cls-37" d="M521.07,416.93a3.63,3.63,0,1,1-3.63-3.63A3.63,3.63,0,0,1,521.07,416.93Z"/><path class="cls-38" d="M532.24,351.34a3.63,3.63,0,1,1-3.63-3.63A3.63,3.63,0,0,1,532.24,351.34Z"/><path class="cls-37" d="M528.61,324.51a3.64,3.64,0,1,1-3.63-3.63A3.64,3.64,0,0,1,528.61,324.51Z"/><path class="cls-37" d="M596.11,395a3.63,3.63,0,1,1-3.63-3.63A3.63,3.63,0,0,1,596.11,395Z"/><path class="cls-36" d="M550,372a3.64,3.64,0,1,1-3.64-3.63A3.64,3.64,0,0,1,550,372Z"/><path class="cls-36" d="M492.5,364.58a3.63,3.63,0,1,1-3.63-3.63A3.63,3.63,0,0,1,492.5,364.58Z"/><path class="cls-36" d="M476.57,320.88a3.64,3.64,0,1,1-3.63-3.63A3.64,3.64,0,0,1,476.57,320.88Z"/><circle class="cls-37" cx="596.11" cy="347.71" r="3.63"/><path class="cls-37" d="M643,327a3.63,3.63,0,1,1-3.63-3.63A3.64,3.64,0,0,1,643,327Z"/><path class="cls-37" d="M657.73,402.3a3.63,3.63,0,1,1-3.63-3.63A3.63,3.63,0,0,1,657.73,402.3Z"/><path class="cls-38" d="M582.54,334.3a3.63,3.63,0,1,1-3.63-3.63A3.63,3.63,0,0,1,582.54,334.3Z"/><circle class="cls-38" cx="570.84" cy="347.71" r="3.63"/><path class="cls-38" d="M500.14,391.41a3.63,3.63,0,1,1-3.63-3.63A3.62,3.62,0,0,1,500.14,391.41Z"/><path class="cls-37" d="M594.91,380.37a5,5,0,1,1-5-5.05A5,5,0,0,1,594.91,380.37Z"/><path class="cls-37" d="M624.38,347.71a5,5,0,1,1-5-5A5,5,0,0,1,624.38,347.71Z"/><path class="cls-37" d="M570.14,445.44a5,5,0,1,1-5-5.05A5,5,0,0,1,570.14,445.44Z"/><path class="cls-37" d="M514.1,391.41a5,5,0,1,1-5-5A5,5,0,0,1,514.1,391.41Z"/><path class="cls-37" d="M629.42,320.88a5,5,0,1,1-5-5A5,5,0,0,1,629.42,320.88Z"/><path class="cls-37" d="M499,330.67a5,5,0,1,1-5-5.05A5,5,0,0,1,499,330.67Z"/><path class="cls-37" d="M587.09,364.58a5,5,0,1,1-5.05-5.05A5,5,0,0,1,587.09,364.58Z"/><path class="cls-39" d="M535.34,289.93a8.08,8.08,0,0,0,8.08,8.08h17.13a8.08,8.08,0,0,0,8.08-8.08Z"/><path class="cls-40" d="M568.63,289.93a8,8,0,0,1-1.08,4H536.41a8,8,0,0,1-1.08-4Z"/><path class="cls-41" d="M551.94,117.89s-49.78,6.26-38.46,102.55c4,34.41,17.73,69.49,17.73,69.49h41.46s13.68-35.08,17.73-69.49C601.72,124.15,551.94,117.89,551.94,117.89Z"/><path class="cls-42" d="M590.39,220.43c-4,34.41-17.72,69.5-17.72,69.5H531.21s-13.68-35.09-17.73-69.5c-2.48-21.09-2-37.87.2-51.21,3.56,29.35,12.75,63.36,36.18,63.36,23.12,0,34.76-33.14,40.52-62.22C592.44,183.5,592.81,199.92,590.39,220.43Z"/><path class="cls-43" d="M586.09,152.84c-4.54,3.3-13.78,6.87-32.6,6.87-20.49,0-30.58-4.25-35.41-7.73.55-1.55,1.15-3,1.77-4.45H584C584.75,149.2,585.45,151,586.09,152.84Z"/><path class="cls-44" d="M551.94,97c-10.12,0-25.59,24.94-33.11,53,0,0,9.22,6.52,34.3,6.52,24,0,31.92-6.52,31.92-6.52C579.27,124.83,562.4,97,551.94,97Z"/><path class="cls-45" d="M584.14,253.17a344.18,344.18,0,0,1-11.47,36.76H531.21a347.38,347.38,0,0,1-12-38.79c7.84,9.79,18.47,17.19,32.7,17.19C565.17,268.33,575.81,261.94,584.14,253.17Z"/><path class="cls-44" d="M521.81,261s-15.75,2.66-21.14,24.92-6.75,31.71-6.75,31.71l35.15-33.52Z"/><path class="cls-46" d="M529.07,284.08l-20,19.08c5.8-13.24,11.36-28.81,12.75-42.19Z"/><path class="cls-44" d="M582.16,261s15.75,2.66,21.15,24.92,6.74,31.71,6.74,31.71L574.9,284.08Z"/><path class="cls-46" d="M574.9,284.08l20,19.08c-5.8-13.24-11.36-28.81-12.75-42.19Z"/><path class="cls-47" d="M578.91,271.71c-1.53,4.91-2.93,9.05-4,12.14H529c-1.1-3.09-2.5-7.23-4-12.14Z"/><path class="cls-39" d="M574.9,283.85c-.26.73-.5,1.42-.73,2H529.71c-.21-.61-.46-1.3-.71-2Z"/><path class="cls-44" d="M573.82,184.64a20.33,20.33,0,1,1-20.33-20.33A20.33,20.33,0,0,1,573.82,184.64Z"/><path class="cls-46" d="M570.84,184.64a17.36,17.36,0,1,1-17.35-17.35A17.35,17.35,0,0,1,570.84,184.64Z"/><path class="cls-48" d="M569.21,184.64a15.73,15.73,0,1,1-15.72-15.73A15.72,15.72,0,0,1,569.21,184.64Z"/><path class="cls-49" d="M568.46,186.25a15.27,15.27,0,0,1-1.27,6.1,15.72,15.72,0,0,1-29.4-6.89h0a15.35,15.35,0,0,1,30.67.8Z"/><path class="cls-50" d="M569.21,184.64a15.72,15.72,0,0,1-31.42.82h0q0-.4,0-.81c0-.47,0-1,.07-1.42a15.71,15.71,0,0,0,31.33.3A10.38,10.38,0,0,1,569.21,184.64Z"/><path class="cls-48" d="M565.91,175l-19.62,23.64a15.83,15.83,0,0,1-5.14-4.23l19.55-23.73A15.77,15.77,0,0,1,565.91,175Z"/><path class="cls-48" d="M569.13,183.11h0l-13.24,17.06a14.67,14.67,0,0,1-2.4.19,14,14,0,0,1-2.84-.27l17.14-22A15.17,15.17,0,0,1,569.13,183.11Z"/><path class="cls-46" d="M585.05,150s-7.94,6.52-31.92,6.52c-25.09,0-34.3-6.52-34.3-6.52.39-1.44.79-2.89,1.23-4.32,11.91,6.65,34.67,7.94,52.32.27,19.7-8.54-12.48-45.35-20.44-44.08-3.39.55-8.3,2.16-14.57,6.65,3.61-5,7.24-8.69,10.55-10.43l.24-.12,1-.43c.32-.12.65-.22,1-.31a7.75,7.75,0,0,1,1.35-.25h.47a4.19,4.19,0,0,1,.5,0,5.33,5.33,0,0,1,.54.07,8.86,8.86,0,0,1,1.13.28c.19.05.39.13.6.2l.36.15.51.23C566,103,579.9,127.59,585.05,150Z"/><path class="cls-44" d="M591.44,209.52c-.25,3.49-.6,7.14-1.05,10.91,0,.41-.09.83-.16,1.23H513.64c-.07-.4-.11-.82-.16-1.23-.45-3.77-.8-7.42-1.05-10.91Z"/><path class="cls-39" d="M524.7,227.45a2.78,2.78,0,1,1-2.77-2.78A2.77,2.77,0,0,1,524.7,227.45Z"/><path class="cls-39" d="M536.73,227.45a2.78,2.78,0,1,1-2.78-2.78A2.78,2.78,0,0,1,536.73,227.45Z"/><path class="cls-39" d="M584.82,227.45a2.78,2.78,0,1,1-2.78-2.78A2.77,2.77,0,0,1,584.82,227.45Z"/><path class="cls-39" d="M560.77,227.45a2.78,2.78,0,1,1-2.77-2.78A2.77,2.77,0,0,1,560.77,227.45Z"/><path class="cls-39" d="M548.75,227.45a2.78,2.78,0,1,1-2.78-2.78A2.77,2.77,0,0,1,548.75,227.45Z"/><path class="cls-39" d="M572.8,227.45a2.78,2.78,0,1,1-2.78-2.78A2.78,2.78,0,0,1,572.8,227.45Z"/><path class="cls-44" d="M545.19,289.87a85.64,85.64,0,0,0,6.75,31,93.77,93.77,0,0,0,6.74-31C560.82,248.46,543.73,248.91,545.19,289.87Z"/><path class="cls-46" d="M557.61,301.08a87.36,87.36,0,0,1-5.54,19.8,79.69,79.69,0,0,1-5.71-20.21c1.5,2.3,3.39,3.83,5.81,3.83C554.43,304.5,556.2,303.16,557.61,301.08Z"/><path class="cls-51" d="M540,113.47c-5.7,5.7-13.24,16.69-13.61,27.95-.07,2.21,1.69,8.38,7.07,1.12,4-5.37,2-10,10.83-23.67C548.82,111.85,541.18,112.25,540,113.47Z"/><path class="cls-52" d="M511.93,34.8a15.64,15.64,0,1,1-15.64-15.64A15.64,15.64,0,0,1,511.93,34.8Z"/><path class="cls-53" d="M378.1,139.88a15.65,15.65,0,1,1-15.65-15.64A15.65,15.65,0,0,1,378.1,139.88Z"/><path class="cls-54" d="M285.52,29.65A15.64,15.64,0,1,1,269.88,14,15.64,15.64,0,0,1,285.52,29.65Z"/><path class="cls-55" d="M562.84,60.93A15.65,15.65,0,1,1,547.2,45.29,15.64,15.64,0,0,1,562.84,60.93Z"/><path class="cls-56" d="M680.29,5.28a15.65,15.65,0,1,1-15.65-15.64A15.65,15.65,0,0,1,680.29,5.28Z"/><path class="cls-57" d="M604.72,45.29a15.65,15.65,0,1,1-15.65-15.64A15.65,15.65,0,0,1,604.72,45.29Z"/><path class="cls-58" d="M419,45.29a8.84,8.84,0,1,1-8.84-8.85A8.84,8.84,0,0,1,419,45.29Z"/><path class="cls-59" d="M215.37,101.51a8.85,8.85,0,1,1-8.85-8.84A8.84,8.84,0,0,1,215.37,101.51Z"/><path class="cls-60" d="M115,29.65a8.85,8.85,0,1,1-8.84-8.85A8.84,8.84,0,0,1,115,29.65Z"/><path class="cls-61" d="M523.72,115.39a8.85,8.85,0,1,1-8.85-8.84A8.85,8.85,0,0,1,523.72,115.39Z"/><path class="cls-62" d="M471.41,83.82A8.85,8.85,0,1,1,462.57,75,8.84,8.84,0,0,1,471.41,83.82Z"/><path class="cls-63" d="M419,118.26a8.84,8.84,0,1,1-8.84-8.85A8.84,8.84,0,0,1,419,118.26Z"/><path class="cls-64" d="M627.18,5.28a8.85,8.85,0,1,1-8.85-8.84A8.84,8.84,0,0,1,627.18,5.28Z"/><path class="cls-65" d="M627.18,115.39a8.85,8.85,0,1,1-8.85-8.84A8.85,8.85,0,0,1,627.18,115.39Z"/><path class="cls-66" d="M83.19,115.39a8.85,8.85,0,1,1-8.85-8.84A8.85,8.85,0,0,1,83.19,115.39Z"/><path class="cls-67" d="M206.52,45.29a8.85,8.85,0,1,1-8.84-8.85A8.84,8.84,0,0,1,206.52,45.29Z"/><path class="cls-68" d="M48.7,70.72a8.84,8.84,0,1,1-2-12.35A8.83,8.83,0,0,1,48.7,70.72Z"/><path class="cls-69" d="M744.39,279a29.2,29.2,0,1,1-39.47-12.15A29.19,29.19,0,0,1,744.39,279Z"/><path class="cls-70" d="M253.56,227.57a10.72,10.72,0,1,1-15.16,0A10.73,10.73,0,0,1,253.56,227.57Z"/><path class="cls-71" d="M376,284.28a10.72,10.72,0,1,1-15.16,0A10.71,10.71,0,0,1,376,284.28Z"/><circle class="cls-72" cx="410.11" cy="257.72" r="5.36"/><path class="cls-73" d="M639.8,231.36a5.36,5.36,0,1,1-7.58,0A5.35,5.35,0,0,1,639.8,231.36Z"/><path class="cls-74" d="M305.11,176a5.36,5.36,0,1,1-7.58,0A5.37,5.37,0,0,1,305.11,176Z"/><path class="cls-75" d="M245.71,142.28a5.36,5.36,0,1,1,4.41,6.16A5.35,5.35,0,0,1,245.71,142.28Z"/><path class="cls-76" d="M299.06,244.66a10.72,10.72,0,1,1-15.16,0A10.73,10.73,0,0,1,299.06,244.66Z"/><path class="cls-77" d="M397,379.24a32.94,32.94,0,1,1,16.78-43.46A32.94,32.94,0,0,1,397,379.24Z"/><path class="cls-78" d="M39.37,116.57a16.47,16.47,0,1,1,8.39-21.73A16.46,16.46,0,0,1,39.37,116.57Z"/><path class="cls-79" d="M-58.84,175.78c25.68-42.2,120.9-76.28,192.58-33.24,53.7,32.23,50.1,120.79,50.1,164,26.28-26.29,70.62-44.66,108.35-36,60.67,13.85,75.2,42.1,90.62,77.59,23-13.32,80.81-29.82,137.75,23.42,29.1,27.2,53.54,77.25,57.18,116.92H-62.56Z"/><path class="cls-80" d="M201.18,252.25a24.68,24.68,0,1,1-24.68-24.68A24.67,24.67,0,0,1,201.18,252.25Z"/><path class="cls-81" d="M38.82,238.14a38.8,38.8,0,1,1,0-54.87A38.78,38.78,0,0,1,38.82,238.14Z"/><path class="cls-82" d="M222.67,402a14.42,14.42,0,1,1-14.41-14.41A14.41,14.41,0,0,1,222.67,402Z"/><path class="cls-83" d="M315.73,323.45A14.41,14.41,0,1,1,301.32,309,14.41,14.41,0,0,1,315.73,323.45Z"/><circle class="cls-84" cx="55.96" cy="253.93" r="14.41"/><path class="cls-85" d="M497.33,425.68a14.41,14.41,0,1,1-14.41-14.41A14.41,14.41,0,0,1,497.33,425.68Z"/><path class="cls-86" d="M669.75,313a7.21,7.21,0,1,1-7.21-7.21A7.2,7.2,0,0,1,669.75,313Z"/><path class="cls-87" d="M134.42,210.71a7.21,7.21,0,1,1-7.21-7.21A7.2,7.2,0,0,1,134.42,210.71Z"/><path class="cls-88" d="M343.63,435a34.9,34.9,0,1,1-34.89-34.89A34.89,34.89,0,0,1,343.63,435Z"/><path class="cls-89" d="M848.59,249.54C813,236,770.24,240.65,740.25,261.31s-46,56.56-40.63,90.89c-36.71-11.41-78.51,2.33-103.62,28.07s-35.31,61.34-35.62,96.13l220.35,29.92Z"/><path class="cls-90" d="M648.76,450.48a31.08,31.08,0,1,1-31.08-31.07A31.07,31.07,0,0,1,648.76,450.48Z"/><path class="cls-91" d="M99.66,419.91a15.17,15.17,0,0,1-8.11-2.34,13.46,13.46,0,0,1-5.26-6.24c-.46-1.15-1-2.29-1.5-3.4a12.84,12.84,0,0,1,3-15v0a12.93,12.93,0,0,0,0-19.08l-.35-.31a15,15,0,0,0-20.29,0,14.78,14.78,0,0,1-10.14,4,15,15,0,0,1-5.8-1.17c-1.18-.49-2.39-1-3.61-1.41a13.41,13.41,0,0,1-9.13-12.54,13,13,0,0,0-4.2-9.53,14.74,14.74,0,0,0-10.16-4h-.48c-7.92,0-14.34,6-14.34,13.49A13,13,0,0,1,6.78,370,14,14,0,0,1,.12,374.9c-1.2.44-2.41.92-3.6,1.41a15,15,0,0,1-15.95-2.78,14.8,14.8,0,0,0-10.14-3.95,14.81,14.81,0,0,0-10.15,3.95l-.33.31a12.92,12.92,0,0,0,0,19.08v0a12.84,12.84,0,0,1,2.95,15c-.52,1.11-1,2.25-1.49,3.4a14.31,14.31,0,0,1-13.35,8.58,14.87,14.87,0,0,0-10.16,3.95,13.07,13.07,0,0,0-4.2,9.53v.46c0,7.46,6.44,13.5,14.36,13.5a14.93,14.93,0,0,1,8.09,2.34,13.41,13.41,0,0,1,5.26,6.24c.46,1.15,1,2.28,1.49,3.4a12.82,12.82,0,0,1-2.95,15,13.07,13.07,0,0,0-4.21,9.53A13.07,13.07,0,0,0-40,493.39l.33.33a15,15,0,0,0,20.29,0,14.84,14.84,0,0,1,10.16-4,15,15,0,0,1,5.79,1.17c1.19.52,2.4,1,3.6,1.41A13.48,13.48,0,0,1,9.27,504.9a13,13,0,0,0,4.2,9.53,14.73,14.73,0,0,0,10.14,4h.48c7.94,0,14.36-6,14.36-13.48a13,13,0,0,1,2.49-7.63,14.05,14.05,0,0,1,6.64-4.94c1.22-.44,2.43-.89,3.61-1.41a15,15,0,0,1,15.94,2.8,15,15,0,0,0,20.29,0l.35-.33a12.93,12.93,0,0,0,0-19.08,13,13,0,0,1-4.22-9.53,12.71,12.71,0,0,1,1.24-5.45c.55-1.12,1-2.25,1.5-3.4a14.27,14.27,0,0,1,13.37-8.58,14.74,14.74,0,0,0,10.13-4,13.1,13.1,0,0,0,4.21-9.55v-.46C114,425.94,107.58,419.91,99.66,419.91Zm-75.8,56c-24.85,0-45-18.93-45-42.29s20.13-42.3,45-42.3,45,18.94,45,42.3S48.7,475.92,23.86,475.92Z"/><path class="cls-92" d="M23.86,387.11c-27.34,0-49.48,20.82-49.48,46.52s22.14,46.52,49.48,46.52,49.48-20.84,49.48-46.52S51.17,387.11,23.86,387.11Zm0,88.81c-24.85,0-45-18.93-45-42.29s20.13-42.3,45-42.3,45,18.94,45,42.3S48.7,475.92,23.86,475.92Z"/><path class="cls-93" d="M166.18,351.4a7.61,7.61,0,0,1-4.06-1.17,6.74,6.74,0,0,1-2.63-3.12q-.35-.87-.75-1.71a6.42,6.42,0,0,1,1.49-7.49h0a6.47,6.47,0,0,0,0-9.54l-.17-.15a7.49,7.49,0,0,0-10.15,0,7.39,7.39,0,0,1-5.07,2,7.58,7.58,0,0,1-2.9-.58c-.59-.25-1.2-.49-1.81-.71a6.71,6.71,0,0,1-4.56-6.27,6.53,6.53,0,0,0-2.1-4.77,7.43,7.43,0,0,0-5.08-2h-.24a7,7,0,0,0-7.18,6.75,6.43,6.43,0,0,1-1.24,3.81,7,7,0,0,1-3.33,2.46c-.6.22-1.2.46-1.8.71a7.52,7.52,0,0,1-8-1.39,7.48,7.48,0,0,0-10.14,0l-.17.15a6.47,6.47,0,0,0,0,9.54h0a6.42,6.42,0,0,1,1.48,7.49q-.39.84-.75,1.71a7.13,7.13,0,0,1-6.67,4.29,7.44,7.44,0,0,0-5.08,2,6.55,6.55,0,0,0-2.1,4.77v.23a7,7,0,0,0,7.18,6.75,7.49,7.49,0,0,1,4,1.17A6.72,6.72,0,0,1,97,369.41c.24.58.49,1.14.75,1.7a6.41,6.41,0,0,1-1.48,7.49,6.47,6.47,0,0,0,0,9.54l.17.17a7.5,7.5,0,0,0,10.14,0,7.46,7.46,0,0,1,8-1.4c.6.25,1.2.48,1.8.7A6.73,6.73,0,0,1,121,393.9a6.48,6.48,0,0,0,2.11,4.76,7.33,7.33,0,0,0,5.07,2h.24a7,7,0,0,0,7.18-6.74,6.55,6.55,0,0,1,1.24-3.82,7,7,0,0,1,3.32-2.47c.61-.22,1.22-.45,1.81-.7a7.46,7.46,0,0,1,8,1.4,7.52,7.52,0,0,0,10.15,0l.17-.17a6.47,6.47,0,0,0,0-9.54,6.51,6.51,0,0,1-2.11-4.76,6.29,6.29,0,0,1,.62-2.73c.27-.56.52-1.12.75-1.7a7.14,7.14,0,0,1,6.69-4.29,7.39,7.39,0,0,0,5.07-2,6.55,6.55,0,0,0,2.1-4.77v-.23A7,7,0,0,0,166.18,351.4Zm-37.91,28c-12.42,0-22.49-9.47-22.49-21.15s10.07-21.15,22.49-21.15,22.49,9.47,22.49,21.15S140.7,379.41,128.27,379.41Z"/><path class="cls-94" d="M128.27,335c-13.67,0-24.74,10.41-24.74,23.27s11.07,23.26,24.74,23.26S153,371.1,153,358.26,141.93,335,128.27,335Zm0,44.42c-12.42,0-22.49-9.47-22.49-21.15s10.07-21.15,22.49-21.15,22.49,9.47,22.49,21.15S140.7,379.41,128.27,379.41Z"/><path class="cls-95" d="M819.52,431.47a12.31,12.31,0,0,1-6.6-1.91,10.9,10.9,0,0,1-4.27-5.07c-.38-.94-.78-1.86-1.22-2.76a10.4,10.4,0,0,1,2.42-12.18v0a10.5,10.5,0,0,0,0-15.51l-.28-.26a12.21,12.21,0,0,0-16.5,0,12,12,0,0,1-8.24,3.22,12.39,12.39,0,0,1-4.72-1c-1-.41-1.94-.79-2.94-1.15a10.93,10.93,0,0,1-7.42-10.2,10.57,10.57,0,0,0-3.41-7.75,12,12,0,0,0-8.26-3.21h-.4c-6.43,0-11.65,4.9-11.65,11a10.5,10.5,0,0,1-2,6.2,11.36,11.36,0,0,1-5.41,4c-1,.36-2,.74-2.92,1.15a12.2,12.2,0,0,1-13-2.27,12.21,12.21,0,0,0-16.5,0l-.27.26a10.52,10.52,0,0,0,0,15.51v0a10.43,10.43,0,0,1,2.4,12.18c-.42.9-.83,1.82-1.21,2.76a11.62,11.62,0,0,1-10.85,7,12.06,12.06,0,0,0-8.26,3.21,10.62,10.62,0,0,0-3.42,7.75v.37c0,6.07,5.24,11,11.68,11a12.11,12.11,0,0,1,6.57,1.9,11,11,0,0,1,4.28,5.07c.38.94.79,1.86,1.21,2.77a10.43,10.43,0,0,1-2.4,12.18,10.5,10.5,0,0,0,0,15.51l.27.27a12.21,12.21,0,0,0,16.5,0,12.17,12.17,0,0,1,13-2.28c1,.42,1.94.79,2.92,1.15A11,11,0,0,1,746,500.57a10.55,10.55,0,0,0,3.41,7.74,11.94,11.94,0,0,0,8.24,3.22h.4c6.45,0,11.67-4.91,11.67-11a10.53,10.53,0,0,1,2-6.21,11.41,11.41,0,0,1,5.39-4c1-.36,2-.73,2.94-1.15a12.18,12.18,0,0,1,13,2.28,12.21,12.21,0,0,0,16.5,0l.28-.27a10.5,10.5,0,0,0,0-15.51,10.58,10.58,0,0,1-3.43-7.75,10.27,10.27,0,0,1,1-4.43c.44-.91.84-1.83,1.22-2.77a11.61,11.61,0,0,1,10.87-7,12,12,0,0,0,8.24-3.22,10.65,10.65,0,0,0,3.41-7.76v-.37C831.17,436.37,826,431.47,819.52,431.47ZM757.89,477c-20.2,0-36.57-15.4-36.57-34.39s16.37-34.38,36.57-34.38,36.57,15.39,36.57,34.38S778.09,477,757.89,477Z"/></g></svg>